<?xml version="1.0" standalone="no"?>
<!DOCTYPE svg PUBLIC "-//W3C//DTD SVG 20010904//EN"
 "http://www.w3.org/TR/2001/REC-SVG-20010904/DTD/svg10.dtd">
<svg version="1.0" xmlns="http://www.w3.org/2000/svg"
 width="530.000000pt" height="530.000000pt" viewBox="0 0 530.000000 530.000000"
 preserveAspectRatio="xMidYMid meet">
<metadata>
Created by potrace 1.14, written by Peter Selinger 2001-2017
</metadata>
<g transform="translate(0.000000,530.000000) scale(0.100000,-0.100000)"
fill="#000000" stroke="none">
<path d="M335 4972 c-2 -2 86 -270 196 -595 257 -760 275 -814 544 -1612 125
-368 257 -762 295 -875 38 -113 164 -486 280 -830 117 -344 220 -650 230 -680
l17 -55 750 -3 750 -2 31 87 c16 49 53 158 82 243 151 448 538 1594 651 1930
72 212 154 457 184 545 30 88 135 401 235 695 100 294 183 542 185 550 2 8 49
147 104 309 56 162 101 295 101 295 0 4 -1259 0 -1263 -4 -3 -4 -28 -86 -41
-135 -4 -14 -35 -116 -148 -485 -55 -179 -101 -332 -103 -340 -2 -8 -42 -139
-89 -290 -116 -380 -368 -1202 -426 -1395 -27 -88 -87 -286 -134 -441 -47
-154 -86 -286 -86 -292 0 -10 -30 -32 -43 -32 -3 0 -7 8 -10 18 -3 9 -55 181
-117 382 -134 438 -149 485 -162 530 -5 19 -29 98 -53 175 -24 77 -60 192 -79
255 -43 144 -206 677 -253 830 -19 63 -41 135 -48 160 -7 25 -32 106 -55 180
-23 74 -48 155 -55 180 -7 25 -27 90 -45 145 -17 55 -33 107 -36 115 -17 66
-121 402 -131 425 -8 20 -15 20 -631 20 -343 0 -625 -1 -627 -3z"/>
</g>
</svg>
